<svg width="16" height="16" viewBox="0 0 16 16" fill="none" xmlns="http://www.w3.org/2000/svg">
<path d="M10.0985 15H10.0984C9.84378 14.9999 9.59619 14.8884 9.43636 14.7016C9.21854 14.4487 8.52836 13.791 7.96345 13.791C7.4024 13.791 6.70154 14.4525 6.50024 14.6842C6.34077 14.8678 6.09493 14.9774 5.84277 14.9774C5.72258 14.9774 5.60927 14.9531 5.50573 14.9049L5.48758 14.8966L3.77043 13.8796L3.75334 13.867C3.44078 13.6353 3.32181 13.182 3.47671 12.8126C3.47791 12.8099 3.6351 12.4257 3.6351 12.0754C3.6351 11.0126 2.8185 10.1478 1.81484 10.1478H1.75397C1.75022 10.1479 1.74648 10.148 1.74296 10.148C1.4554 10.148 1.22134 9.87753 1.14645 9.45891C1.14052 9.42534 1 8.63145 1 8.00595C1 7.38039 1.14048 6.58642 1.14645 6.55287C1.22218 6.12898 1.46134 5.85669 1.75399 5.86398H1.81485C2.81853 5.86398 3.63512 4.99921 3.63512 3.9364C3.63512 3.58625 3.47801 3.20218 3.47633 3.19832C3.3216 2.82938 3.44136 2.37615 3.75535 2.14515L3.77314 2.13209L5.58535 1.07791L5.60422 1.06943C5.70629 1.02336 5.81803 1 5.93643 1C6.18812 1 6.43437 1.10726 6.59537 1.28692C6.80988 1.5247 7.4878 2.14326 8.03657 2.14326C8.5802 2.14326 9.25404 1.53697 9.46779 1.30331C9.6279 1.12734 9.87242 1.02191 10.1215 1.02191C10.2423 1.02191 10.3562 1.0461 10.46 1.09382L10.4783 1.1023L12.2286 2.13207L12.2459 2.1449C12.5591 2.3763 12.6783 2.82963 12.5233 3.19915C12.5222 3.20196 12.3649 3.58613 12.3649 3.93638C12.3649 4.99921 13.1815 5.86397 14.1851 5.86397H14.2461C14.5383 5.85707 14.7778 6.12892 14.8535 6.55285C14.8595 6.58639 15 7.38028 15 8.00582C15 8.6314 14.8595 9.42534 14.8534 9.45888C14.7778 9.8828 14.5382 10.1541 14.246 10.1477H14.1851C13.1815 10.1477 12.3649 11.0125 12.3649 12.0754C12.3649 12.4255 12.522 12.8095 12.5236 12.8133C12.6783 13.1821 12.5587 13.6354 12.2453 13.8666L12.2278 13.8796L10.4479 14.9214L10.4294 14.9299C10.3275 14.9764 10.2163 15 10.0985 15ZM10.0444 14.112C10.0524 14.1175 10.0749 14.1268 10.0985 14.1268C10.0995 14.1268 10.1003 14.1268 10.1012 14.1267L11.7641 13.1534C11.7239 13.0547 11.5404 12.5754 11.5404 12.0756C11.5404 10.5805 12.6524 9.3552 14.0465 9.27858C14.0665 9.16124 14.1755 8.50117 14.1755 8.00601C14.1755 7.51086 14.0665 6.85111 14.0465 6.73341C12.6524 6.65674 11.5404 5.43148 11.5404 3.93645C11.5404 3.43583 11.7245 2.95594 11.7643 2.85793L10.1283 1.89541C10.1265 1.89533 10.1242 1.89514 10.1215 1.89514C10.0936 1.89514 10.0676 1.90591 10.059 1.9121C10.0315 1.94199 9.79437 2.19665 9.45371 2.45038C8.94948 2.82601 8.4727 3.01652 8.0365 3.01652C7.59617 3.01652 7.11554 2.82225 6.60808 2.43923C6.26532 2.18059 6.02708 1.92103 5.99958 1.89059C5.99086 1.88434 5.96445 1.87326 5.93636 1.87326C5.93417 1.87326 5.93225 1.87334 5.93054 1.87344L4.23602 2.85904C4.2767 2.959 4.4595 3.43747 4.4595 3.93648C4.4595 5.4315 3.34759 6.65676 1.95342 6.73345C1.93339 6.85086 1.82447 7.51083 1.82447 8.00603C1.82447 8.50113 1.93338 9.16086 1.95353 9.2785C3.34756 9.35522 4.45951 10.5804 4.45951 12.0755C4.45951 12.5772 4.27469 13.0578 4.23533 13.1546L5.83915 14.1043C5.84015 14.1044 5.84139 14.1044 5.84275 14.1044C5.86614 14.1044 5.88834 14.0953 5.89631 14.0899C5.92629 14.0558 6.16579 13.7873 6.51087 13.5195C7.02511 13.1203 7.51382 12.918 7.96345 12.918C8.41727 12.918 8.90972 13.1242 9.42697 13.531C9.77401 13.8038 10.0146 14.0773 10.0444 14.112ZM7.96929 10.5633C6.63268 10.5633 5.54524 9.41172 5.54524 7.99622C5.54524 6.58077 6.63269 5.42918 7.96929 5.42918C9.30596 5.42918 10.3935 6.58077 10.3935 7.99622C10.3935 9.41172 9.30596 10.5633 7.96929 10.5633ZM7.96929 6.30234C7.08731 6.30234 6.36981 7.06219 6.36981 7.99619C6.36981 8.93026 7.08732 9.69013 7.96929 9.69013C8.85134 9.69013 9.56898 8.93026 9.56898 7.99621C9.56898 7.06219 8.85137 6.30234 7.96929 6.30234Z" fill="#262B30" stroke="#262B30" stroke-width="0.4"/>
</svg>
